#!OML:ASF Y:\EmotionMaleHayes\Project 1\Capture day 1\Session 1\Male1.ASF
:FULLY-SPECIFIED
:DEGREES
342
root -26.8611 16.1761 -3.44649 190.857 45.4113 181.862
lowerback 15.1856 3.39597 -1.09353
upperback 5.81042 4.81203 -3.54776
thorax -2.09882 2.67136 -3.91189
lowerneck -20.6263 -5.96928 -4.9204
upperneck 22.037 -6.79333 1.13814
head 10.7174 -3.3065 0.196029
rclavicle 2.50469e-014 -1.03368e-014
rhumerus -34.0164 19.9164 -86.9743
rradius 50.9564
rwrist -12.5865
rhand -13.9095 -32.6871
rfingers 7.12502
rthumb 12.2164 -62.3103
lclavicle 2.50469e-014 -1.03368e-014
lhumerus -41.2332 2.47953 77.6639
lradius 43.0742
lwrist 33.937
lhand -35.1178 -26.6397
lfingers 7.12502
lthumb -8.25842 3.17887
rfemur 3.04082 -8.84487 12.152
rtibia 40.8131
rfoot -15.7284 -20.9886
rtoes 9.83272
lfemur -28.6591 18.5699 -9.83703
ltibia 38.4958
lfoot -18.7702 6.69832
ltoes -33.5217
343
root -26.7819 16.1962 -3.59504 189.395 45.205 180.346
lowerback 15.3944 3.20269 -1.94775
upperback 5.80689 4.44229 -3.77666
thorax -2.2751 2.48924 -3.63164
lowerneck -20.4672 -6.08976 -4.9552
upperneck 21.872 -7.04895 1.45156
head 10.6492 -3.3917 0.279245
rclavicle -4.57205e-014 4.13472e-014
rhumerus -34.8894 18.6211 -87.4073
rradius 49.0671
rwrist -11.3709
rhand -13.1261 -32.7248
rfingers 7.12502
rthumb 12.9716 -62.3016
lclavicle -4.57205e-014 4.13472e-014
lhumerus -39.6518 2.35908 77.8425
lradius 42.7851
lwrist 33.0414
lhand -35.4617 -26.8885
lfingers 7.12502
lthumb -8.59032 2.91673
rfemur 1.55045 -9.03872 11.0008
rtibia 44.505
rfoot -14.4617 -17.8512
rtoes 10.6549
lfemur -27.3099 17.8028 -11.0386
ltibia 37.7964
lfoot -19.1382 6.77956
ltoes -33.0355
344
root -26.6969 16.2212 -3.73902 187.76 45.0101 178.554
lowerback 15.5829 3.04207 -3.12103
upperback 5.82474 4.07308 -3.9791
thorax -2.43032 2.30778 -3.13967
lowerneck -20.4147 -6.1747 -5.11216
upperneck 21.7697 -7.2151 1.79086
head 10.6285 -3.4415 0.401282
rclavicle 3.49861e-014 -3.26007e-014
rhumerus -35.7083 17.279 -87.611
rradius 47.1967
rwrist -9.8853
rhand -12.802 -32.5804
rfingers 7.12502
rthumb 13.284 -62.137
lclavicle 3.49861e-014 -3.26007e-014
lhumerus -38.0995 1.99518 78.36
lradius 42.8669
lwrist 32.971
lhand -36.2243 -26.5996
lfingers 7.12502
lthumb -9.32627 3.17409
rfemur 0.0564367 -9.28977 9.65423
rtibia 47.9382
rfoot -12.3621 -14.7102
rtoes 11.8742
lfemur -25.7963 16.9279 -12.4722
ltibia 36.8367
lfoot -19.2303 6.95485
ltoes -33.4932
345
root -26.6105 16.2492 -3.88547 186.049 44.7464 176.509
lowerback 15.5107 2.83467 -4.53394
upperback 5.89678 3.63195 -4.2024
thorax -2.38649 2.0921 -2.50123
lowerneck -20.4136 -6.21435 -5.3524
upperneck 21.6632 -7.30557 2.19415
head 10.6202 -3.45555 0.56967
rclavicle 1.39149e-014 -1.98785e-014
rhumerus -36.3277 15.8663 -87.644
rradius 45.1877
rwrist -8.06246
rhand -12.7648 -32.1754
rfingers 7.12502
rthumb 13.32 -61.7297
lclavicle 1.39149e-014 -1.98785e-014
lhumerus -36.4435 1.63085 78.8887
lradius 42.8016
lwrist 32.4768
lhand -36.8014 -26.9219
lfingers 7.12502
lthumb -9.88307 2.82616
rfemur -1.68392 -9.82957 8.06157
rtibia 51.4403
rfoot -10.6103 -11.4437
rtoes 6.80964
lfemur -24.2527 15.9515 -14.213
ltibia 35.6871
lfoot -19.2433 7.03033
ltoes -34.0088
346
root -26.5185 16.283 -4.03084 184.761 44.4141 175.049
lowerback 15.4821 2.56035 -5.42859
upperback 5.88974 3.16164 -4.4411
thorax -2.40552 1.86401 -2.17035
lowerneck -20.2109 -6.2061 -5.3535
upperneck 21.5903 -7.41857 2.62052
head 10.5788 -3.45721 0.710044
rclavicle -5.56597e-015 1.59028e-015
rhumerus -37.0286 14.2484 -87.7511
rradius 43.2651
rwrist -6.17291
rhand -12.6475 -31.6117
rfingers 7.12502
rthumb 13.433 -61.1586
lclavicle -5.56597e-015 1.59028e-015
lhumerus -34.8012 1.27328 79.0273
lradius 42.4329
lwrist 30.8301
lhand -36.7082 -27.1943
lfingers 7.12502
lthumb -9.79312 2.55799
rfemur -3.1394 -10.1589 7.19924
rtibia 54.0421
rfoot -9.71904 -7.88522
rtoes 9.23406
lfemur -22.6664 15.1576 -15.4337
ltibia 34.4463
lfoot -19.2709 7.24629
ltoes -34.7327
347
root -26.4208 16.3235 -4.17321 184.004 44.0442 174.297
lowerback 15.2539 2.30629 -6.09002
upperback 6.02232 2.77732 -4.31689
thorax -2.17144 1.66521 -1.58557
lowerneck -20.3269 -6.31994 -5.73472
upperneck 21.637 -7.56294 3.03485
head 10.6593 -3.50226 0.891873
rclavicle 2.42517e-014 -1.90833e-014
rhumerus -37.3879 12.6929 -87.2904
rradius 41.5069
rwrist -4.8108
rhand -11.8974 -31.4942
rfingers 7.12502
rthumb 14.1559 -60.9919
lclavicle 2.42517e-014 -1.90833e-014
lhumerus -32.9363 0.961155 79.5947
lradius 42.0712
lwrist 29.3334
lhand -36.8111 -27.3523
lfingers 7.12502
lthumb -9.89244 2.39531
rfemur -4.91913 -10.7761 6.97154
rtibia 56.7017
rfoot -8.63305 -4.6375
rtoes 8.10656
lfemur -21.0668 14.4545 -16.0308
ltibia 33.0723
lfoot -19.3854 7.10908
ltoes -34.9651
348
root -26.318 16.3703 -4.31512 183.312 43.6271 173.565
lowerback 15.0848 2.07064 -6.68083
upperback 6.07844 2.4134 -4.2376
thorax -2.03477 1.47644 -1.10035
lowerneck -20.3162 -6.42717 -6.01328
upperneck 21.6276 -7.71862 3.38529
head 10.6901 -3.55354 1.0368
rclavicle -8.74653e-015 -1.98785e-014
rhumerus -37.8568 11.0964 -86.9025
rradius 39.8664
rwrist -3.53323
rhand -11.2324 -31.688
rfingers 7.12502
rthumb 14.7966 -61.1398
lclavicle -8.74653e-015 -1.98785e-014
lhumerus -31.1976 0.164019 80.293
lradius 41.9115
lwrist 28.5442
lhand -37.1353 -27.3052
lfingers 7.12502
lthumb -10.2052 2.42726
rfemur -6.7843 -11.5749 6.80457
rtibia 59.1544
rfoot -7.81877 -1.62168
rtoes 6.23662
lfemur -19.4202 13.497 -16.636
ltibia 31.5198
lfoot -19.4593 7.3616
ltoes -35.5539
349
root -26.2077 16.4215 -4.45791 182.447 43.4373 172.519
lowerback 14.8053 1.9276 -7.55111
upperback 6.09302 2.14697 -4.29869
thorax -1.87722 1.33561 -0.623733
lowerneck -20.2079 -6.49483 -6.0693
upperneck 21.578 -7.86878 3.63861
head 10.6737 -3.59729 1.11535
rclavicle -1.55052e-014 -7.95139e-015
rhumerus -38.5204 9.89696 -86.8704
rradius 38.2545
rwrist -1.84869
rhand -11.3935 -31.7386
rfingers 7.12502
rthumb 14.6414 -61.2018
lclavicle -1.55052e-014 -7.95139e-015
lhumerus -29.6214 -0.905247 80.8762
lradius 41.9428
lwrist 27.8021
lhand -37.2455 -27.3266
lfingers 7.12502
lthumb -10.3115 2.40057
rfemur -8.6973 -12.2795 6.48688
rtibia 61.2561
rfoot -7.63808 0.502617
rtoes 5.10993
lfemur -17.6039 12.6921 -17.5025
ltibia 29.7445
lfoot -19.1879 7.28415
ltoes -34.1669
350
root -26.0999 16.4786 -4.60322 181.584 43.3616 171.35
lowerback 14.4816 1.78518 -8.4478
upperback 6.06863 1.8835 -4.4163
thorax -1.7267 1.19584 -0.195472
lowerneck -20.2265 -6.62329 -6.28337
upperneck 21.6765 -8.08485 4.02773
head 10.7539 -3.66302 1.25291
rclavicle 5.48646e-014 -6.52014e-014
rhumerus -39.2511 8.67208 -86.7354
rradius 36.8395
rwrist -0.067599
rhand -11.4738 -31.462
rfingers 7.12502
rthumb 14.564 -60.9307
lclavicle 5.48646e-014 -6.52014e-014
lhumerus -28.122 -2.24299 81.4341
lradius 42.1019
lwrist 27.3761
lhand -37.1953 -27.6274
lfingers 7.12502
lthumb -10.2631 2.10219
rfemur -10.7798 -13.153 6.12624
rtibia 63.1377
rfoot -7.98395 1.39203
rtoes 4.02887
lfemur -15.8018 11.9235 -18.5334
ltibia 27.8533
lfoot -18.8759 7.21732
ltoes -32.8108
351
root -25.9965 16.5397 -4.73595 180.862 43.0983 170.346
lowerback 14.3356 1.53455 -9.26344
upperback 6.0284 1.46868 -4.46152
thorax -1.67031 0.982566 0.27838
lowerneck -20.3221 -6.76704 -6.6275
upperneck 21.7789 -8.30607 4.52037
head 10.8636 -3.72794 1.44563
rclavicle -1.51076e-014 -6.36111e-015
rhumerus -39.9529 7.43094 -86.4107
rradius 35.7779
rwrist 1.40153
rhand -11.041 -31.2206
rfingers 7.12502
rthumb 14.981 -60.6587
lclavicle -1.51076e-014 -6.36111e-015
lhumerus -26.5784 -3.54555 81.9538
lradius 42.1715
lwrist 27.0725
lhand -36.8603 -27.9383
lfingers 7.12502
lthumb -9.9399 1.80707
rfemur -12.9325 -14.2555 6.06852
rtibia 64.7903
rfoot -8.46869 1.62907
rtoes 4.29024
lfemur -14.1873 11.0966 -19.4474
ltibia 26.1112
lfoot -18.6736 7.39884
ltoes -33.3734
352
root -25.8857 16.6 -4.86851 180.419 42.9964 169.879
lowerback 14.1835 1.33322 -9.79775
upperback 6.02837 1.15539 -4.39249
thorax -1.56747 0.815129 0.699899
lowerneck -20.3397 -6.83782 -6.72972
upperneck 21.7486 -8.44294 4.77995
head 10.8824 -3.76695 1.53236
rclavicle -4.29375e-014 5.40694e-014
rhumerus -40.6806 6.4101 -86.1884
rradius 34.8984
rwrist 2.64782
rhand -10.5594 -31.0692
rfingers 7.12502
rthumb 15.4449 -60.4721
lclavicle -4.29375e-014 5.40694e-014
lhumerus -25.1031 -4.93543 82.3975
lradius 42.3254
lwrist 26.7049
lhand -36.4419 -27.8159
lfingers 7.12502
lthumb -9.53614 1.94836
rfemur -14.9659 -14.9777 6.64815
rtibia 65.9556
rfoot -9.26954 1.26314
rtoes 5.4541
lfemur -12.3839 10.5871 -19.7818
ltibia 24.27
lfoot -18.4358 7.49535
ltoes -33.5739
